<?xml version="1.0" standalone="no"?>
<!DOCTYPE svg PUBLIC "-//W3C//DTD SVG 20010904//EN"
 "http://www.w3.org/TR/2001/REC-SVG-20010904/DTD/svg10.dtd">
<svg version="1.0" xmlns="http://www.w3.org/2000/svg"
 width="512.000000pt" height="512.000000pt" viewBox="0 0 512.000000 512.000000"
 preserveAspectRatio="xMidYMid meet">

<g transform="translate(0.000000,512.000000) scale(0.100000,-0.100000)"
fill="#000000" stroke="none">
<path d="M1512 4314 c-99 -49 -142 -133 -142 -275 l0 -77 -177 -4 c-171 -3
-181 -5 -240 -32 -73 -33 -152 -112 -186 -183 l-22 -48 0 -1325 0 -1325 26
-56 c36 -76 86 -129 161 -170 l63 -34 1565 0 1565 0 63 34 c99 54 158 133 181
241 9 41 11 382 9 1345 l-3 1290 -22 48 c-34 71 -113 150 -186 183 -59 27 -69
29 -239 32 l-178 4 0 77 c0 43 -6 99 -14 124 -44 148 -215 221 -354 151 -99
-49 -142 -131 -142 -271 l0 -83 -680 0 -680 0 0 78 c0 143 -43 227 -142 276
-39 19 -67 26 -113 26 -46 0 -74 -7 -113 -26z m169 -134 c44 -24 49 -55 49
-306 l0 -236 -34 -34 c-26 -26 -42 -34 -71 -34 -29 0 -45 8 -71 34 l-34 34 0
236 c0 249 5 280 47 305 23 14 89 14 114 1z m1875 -5 c41 -28 45 -59 42 -309
l-3 -238 -33 -29 c-46 -42 -93 -40 -138 5 l-34 34 0 236 c0 249 5 280 47 305
26 15 96 13 119 -4z m-2184 -467 c5 -114 21 -159 79 -216 51 -50 95 -67 174
-67 79 0 129 19 180 70 54 55 69 99 73 213 l4 102 679 0 679 0 0 -88 c0 -113
19 -169 76 -226 124 -124 324 -90 407 68 16 32 22 64 25 143 l4 102 162 -6
c194 -6 232 -19 281 -98 l30 -48 3 -299 3 -298 -1670 0 -1671 0 0 284 c0 298
3 325 47 384 48 65 100 79 294 81 l137 1 4 -102z m2858 -1710 c0 -867 -1 -915
-19 -954 -23 -51 -81 -99 -137 -113 -59 -15 -2983 -15 -3037 0 -49 13 -105 63
-128 114 -18 38 -19 91 -19 953 l0 912 1670 0 1670 0 0 -912z"/>
<path d="M2835 2340 l-370 -370 -270 269 c-148 148 -280 272 -292 275 -13 4
-34 1 -50 -8 -34 -18 -346 -331 -363 -364 -6 -13 -9 -34 -6 -45 3 -12 217
-233 475 -491 422 -422 473 -469 501 -469 29 0 89 56 606 574 443 443 574 580
574 599 0 18 -48 72 -187 212 -161 162 -192 188 -218 188 -26 0 -76 -46 -400
-370z m520 80 l110 -110 -500 -500 -500 -500 -402 402 -403 403 112 112 113
113 270 -269 c182 -182 279 -272 298 -277 27 -6 50 14 400 365 205 204 377
371 382 371 6 0 60 -50 120 -110z"/>
</g>
</svg>
